<svg width="29" height="28" viewBox="0 0 29 28" fill="none" xmlns="http://www.w3.org/2000/svg">
<g clip-path="url(#clip0)">
<path d="M25.4858 0H4.48584C2.55559 0 0.98584 1.56975 0.98584 3.5V24.5C0.98584 26.4303 2.55559 28 4.48584 28H14.9858V18.375H11.4858V14H14.9858V10.5C14.9858 7.60025 17.3361 5.25 20.2358 5.25H23.7358V9.625H21.9858C21.0198 9.625 20.2358 9.534 20.2358 10.5V14H24.6108L22.8608 18.375H20.2358V28H25.4858C27.4161 28 28.9858 26.4303 28.9858 24.5V3.5C28.9858 1.56975 27.4161 0 25.4858 0Z" fill="#38B000"/>
</g>
<defs>
<clipPath id="clip0">
<rect width="28" height="28" fill="white" transform="translate(0.98584)"/>
</clipPath>
</defs>
</svg>
