<svg width="30" height="29" viewBox="0 0 30 29" fill="none" xmlns="http://www.w3.org/2000/svg">
<g clip-path="url(#clip0)">
<path d="M22.1358 0H8.83586C4.50729 0 0.98584 3.52145 0.98584 7.85002V21.1501C0.98584 25.4785 4.50729 28.9999 8.83586 28.9999H22.136C26.4643 28.9999 29.9858 25.4785 29.9858 21.1501V7.85002C29.9858 3.52145 26.4643 0 22.1358 0V0ZM15.4858 22.4294C11.1134 22.4294 7.55636 18.8724 7.55636 14.5C7.55636 10.1276 11.1134 6.57052 15.4858 6.57052C19.8582 6.57052 23.4153 10.1276 23.4153 14.5C23.4153 18.8724 19.8582 22.4294 15.4858 22.4294ZM23.6049 8.44054C22.3128 8.44054 21.2618 7.3896 21.2618 6.09748C21.2618 4.80537 22.3128 3.7542 23.6049 3.7542C24.897 3.7542 25.9482 4.80537 25.9482 6.09748C25.9482 7.3896 24.897 8.44054 23.6049 8.44054Z" fill="#38B000"/>
<path d="M15.4857 8.27063C12.051 8.27063 9.25635 11.065 9.25635 14.5C9.25635 17.9347 12.051 20.7293 15.4857 20.7293C18.9206 20.7293 21.715 17.9347 21.715 14.5C21.715 11.065 18.9206 8.27063 15.4857 8.27063Z" fill="#38B000"/>
<path d="M23.6049 5.45422C23.2504 5.45422 22.9619 5.74274 22.9619 6.09718C22.9619 6.45163 23.2504 6.74014 23.6049 6.74014C23.9595 6.74014 24.2481 6.45185 24.2481 6.09718C24.2481 5.74251 23.9595 5.45422 23.6049 5.45422Z" fill="#38B000"/>
</g>
<defs>
<clipPath id="clip0">
<rect width="29" height="29" fill="white" transform="translate(0.98584)"/>
</clipPath>
</defs>
</svg>
